<svg id="SvgjsSvg1006" width="908" height="212" xmlns="http://www.w3.org/2000/svg" version="1.1" xmlns:xlink="http://www.w3.org/1999/xlink" xmlns:svgjs="http://svgjs.com/svgjs"><defs id="SvgjsDefs1007"><marker id="SvgjsMarker1028" markerWidth="16" markerHeight="12" refX="16" refY="6" viewBox="0 0 16 12" orient="auto" markerUnits="userSpaceOnUse" stroke-dasharray="0,0"><path id="SvgjsPath1029" d="M0,2 L14,6 L0,11 L0,2" fill="#323232" stroke="#323232" stroke-width="2"></path></marker><marker id="SvgjsMarker1038" markerWidth="16" markerHeight="12" refX="16" refY="6" viewBox="0 0 16 12" orient="auto" markerUnits="userSpaceOnUse" stroke-dasharray="0,0"><path id="SvgjsPath1039" d="M0,2 L14,6 L0,11 L0,2" fill="#323232" stroke="#323232" stroke-width="2"></path></marker><marker id="SvgjsMarker1090" markerWidth="16" markerHeight="12" refX="16" refY="6" viewBox="0 0 16 12" orient="auto" markerUnits="userSpaceOnUse" stroke-dasharray="0,0"><path id="SvgjsPath1091" d="M0,2 L14,6 L0,11 L0,2" fill="#323232" stroke="#323232" stroke-width="2"></path></marker><marker id="SvgjsMarker1094" markerWidth="16" markerHeight="12" refX="16" refY="6" viewBox="0 0 16 12" orient="auto" markerUnits="userSpaceOnUse" stroke-dasharray="0,0"><path id="SvgjsPath1095" d="M0,2 L14,6 L0,11 L0,2" fill="#323232" stroke="#323232" stroke-width="2"></path></marker><marker id="SvgjsMarker1098" markerWidth="16" markerHeight="12" refX="16" refY="6" viewBox="0 0 16 12" orient="auto" markerUnits="userSpaceOnUse" stroke-dasharray="0,0"><path id="SvgjsPath1099" d="M0,2 L14,6 L0,11 L0,2" fill="#323232" stroke="#323232" stroke-width="2"></path></marker><marker id="SvgjsMarker1102" markerWidth="16" markerHeight="12" refX="16" refY="6" viewBox="0 0 16 12" orient="auto" markerUnits="userSpaceOnUse" stroke-dasharray="0,0"><path id="SvgjsPath1103" d="M0,2 L14,6 L0,11 L0,2" fill="#323232" stroke="#323232" stroke-width="2"></path></marker><marker id="SvgjsMarker1106" markerWidth="16" markerHeight="12" refX="16" refY="6" viewBox="0 0 16 12" orient="auto" markerUnits="userSpaceOnUse" stroke-dasharray="0,0"><path id="SvgjsPath1107" d="M0,2 L14,6 L0,11 L0,2" fill="#323232" stroke="#323232" stroke-width="2"></path></marker><marker id="SvgjsMarker1110" markerWidth="16" markerHeight="12" refX="16" refY="6" viewBox="0 0 16 12" orient="auto" markerUnits="userSpaceOnUse" stroke-dasharray="0,0"><path id="SvgjsPath1111" d="M0,2 L14,6 L0,11 L0,2" fill="#323232" stroke="#323232" stroke-width="2"></path></marker><marker id="SvgjsMarker1114" markerWidth="16" markerHeight="12" refX="16" refY="6" viewBox="0 0 16 12" orient="auto" markerUnits="userSpaceOnUse" stroke-dasharray="0,0"><path id="SvgjsPath1115" d="M0,2 L14,6 L0,11 L0,2" fill="#323232" stroke="#323232" stroke-width="2"></path></marker><marker id="SvgjsMarker1118" markerWidth="16" markerHeight="12" refX="16" refY="6" viewBox="0 0 16 12" orient="auto" markerUnits="userSpaceOnUse" stroke-dasharray="0,0"><path id="SvgjsPath1119" d="M0,2 L14,6 L0,11 L0,2" fill="#323232" stroke="#323232" stroke-width="2"></path></marker><marker id="SvgjsMarker1134" markerWidth="16" markerHeight="12" refX="16" refY="6" viewBox="0 0 16 12" orient="auto" markerUnits="userSpaceOnUse" stroke-dasharray="0,0"><path id="SvgjsPath1135" d="M0,2 L14,6 L0,11 L0,2" fill="#323232" stroke="#323232" stroke-width="2"></path></marker><marker id="SvgjsMarker1138" markerWidth="16" markerHeight="12" refX="16" refY="6" viewBox="0 0 16 12" orient="auto" markerUnits="userSpaceOnUse" stroke-dasharray="0,0"><path id="SvgjsPath1139" d="M0,2 L14,6 L0,11 L0,2" fill="#323232" stroke="#323232" stroke-width="2"></path></marker></defs><g id="SvgjsG1008" transform="translate(25,25)"><path id="SvgjsPath1009" d="M 0 0L 65 0L 65 31L 0 31Z" stroke="rgba(50,50,50,1)" stroke-width="2" fill-opacity="1" fill="#ffffff"></path><g id="SvgjsG1010"><text id="SvgjsText1011" font-family="微软雅黑" text-anchor="middle" font-size="13px" width="45px" fill="#323232" font-weight="400" align="middle" anchor="middle" family="微软雅黑" size="13px" weight="400" font-style="" opacity="1" y="5.55" transform="rotate(0)"><tspan id="SvgjsTspan1012" dy="16" x="32.5"><tspan id="SvgjsTspan1013" style="text-decoration:;">Object</tspan></tspan></text></g></g><g id="SvgjsG1014" transform="translate(267,25)"><path id="SvgjsPath1015" d="M 0 0L 65 0L 65 31L 0 31Z" stroke="rgba(50,50,50,1)" stroke-width="2" fill-opacity="1" fill="#ffffff"></path><g id="SvgjsG1016"><text id="SvgjsText1017" font-family="微软雅黑" text-anchor="middle" font-size="13px" width="45px" fill="#323232" font-weight="400" align="middle" anchor="middle" family="微软雅黑" size="13px" weight="400" font-style="" opacity="1" y="5.55" transform="rotate(0)"><tspan id="SvgjsTspan1018" dy="16" x="32.5"><tspan id="SvgjsTspan1019" style="text-decoration:;">Value</tspan></tspan></text></g></g><g id="SvgjsG1020" transform="translate(196,97)"><path id="SvgjsPath1021" d="M 0 0L 65 0L 65 31L 0 31Z" stroke="rgba(50,50,50,1)" stroke-width="2" fill-opacity="1" fill="#ffffff"></path><g id="SvgjsG1022"><text id="SvgjsText1023" font-family="微软雅黑" text-anchor="middle" font-size="13px" width="45px" fill="#323232" font-weight="400" align="middle" anchor="middle" family="微软雅黑" size="13px" weight="400" font-style="" opacity="1" y="5.55" transform="rotate(0)"><tspan id="SvgjsTspan1024" dy="16" x="32.5"><tspan id="SvgjsTspan1025" style="text-decoration:;">Struct</tspan></tspan></text></g></g><g id="SvgjsG1026"><path id="SvgjsPath1027" d="M299.5 56L299.5 76.5L228.5 76.5L228.5 97" stroke="#323232" stroke-width="2" fill="none" marker-end="url(#SvgjsMarker1028)"></path></g><g id="SvgjsG1030" transform="translate(351,97)"><path id="SvgjsPath1031" d="M 0 0L 78 0L 78 31L 0 31Z" stroke="rgba(50,50,50,1)" stroke-width="2" fill-opacity="1" fill="#ffffff"></path><g id="SvgjsG1032"><text id="SvgjsText1033" font-family="微软雅黑" text-anchor="middle" font-size="13px" width="58px" fill="#323232" font-weight="400" align="middle" anchor="middle" family="微软雅黑" size="13px" weight="400" font-style="" opacity="1" y="5.55" transform="rotate(0)"><tspan id="SvgjsTspan1034" dy="16" x="39"><tspan id="SvgjsTspan1035" style="text-decoration:;">Primitive</tspan></tspan></text></g></g><g id="SvgjsG1036"><path id="SvgjsPath1037" d="M299.5 56L299.5 76.5L390 76.5L390 97" stroke="#323232" stroke-width="2" fill="none" marker-end="url(#SvgjsMarker1038)"></path></g><g id="SvgjsG1040" transform="translate(313,167)"><path id="SvgjsPath1041" d="M 0 0L 49 0L 49 20L 0 20Z" stroke="rgba(50,50,50,1)" stroke-width="2" fill-opacity="1" fill="#ffffff"></path><g id="SvgjsG1042"><text id="SvgjsText1043" font-family="微软雅黑" text-anchor="middle" font-size="13px" width="29px" fill="#323232" font-weight="400" align="middle" anchor="middle" family="微软雅黑" size="13px" weight="400" font-style="" opacity="1" y="0.050000000000000044" transform="rotate(0)"><tspan id="SvgjsTspan1044" dy="16" x="24.5"><tspan id="SvgjsTspan1045" style="text-decoration:;">byte</tspan></tspan></text></g></g><g id="SvgjsG1046" transform="translate(380,167)"><path id="SvgjsPath1047" d="M 0 0L 55 0L 55 20L 0 20Z" stroke="rgba(50,50,50,1)" stroke-width="2" fill-opacity="1" fill="#ffffff"></path><g id="SvgjsG1048"><text id="SvgjsText1049" font-family="微软雅黑" text-anchor="middle" font-size="13px" width="35px" fill="#323232" font-weight="400" align="middle" anchor="middle" family="微软雅黑" size="13px" weight="400" font-style="" opacity="1" y="0.050000000000000044" transform="rotate(0)"><tspan id="SvgjsTspan1050" dy="16" x="27.5"><tspan id="SvgjsTspan1051" style="text-decoration:;">short</tspan></tspan></text></g></g><g id="SvgjsG1052" transform="translate(451,167)"><path id="SvgjsPath1053" d="M 0 0L 38 0L 38 20L 0 20Z" stroke="rgba(50,50,50,1)" stroke-width="2" fill-opacity="1" fill="#ffffff"></path><g id="SvgjsG1054"><text id="SvgjsText1055" font-family="微软雅黑" text-anchor="middle" font-size="13px" width="18px" fill="#323232" font-weight="400" align="middle" anchor="middle" family="微软雅黑" size="13px" weight="400" font-style="" opacity="1" y="0.050000000000000044" transform="rotate(0)"><tspan id="SvgjsTspan1056" dy="16" x="19"><tspan id="SvgjsTspan1057" style="text-decoration:;">int</tspan></tspan></text></g></g><g id="SvgjsG1058" transform="translate(507,167)"><path id="SvgjsPath1059" d="M 0 0L 51 0L 51 20L 0 20Z" stroke="rgba(50,50,50,1)" stroke-width="2" fill-opacity="1" fill="#ffffff"></path><g id="SvgjsG1060"><text id="SvgjsText1061" font-family="微软雅黑" text-anchor="middle" font-size="13px" width="31px" fill="#323232" font-weight="400" align="middle" anchor="middle" family="微软雅黑" size="13px" weight="400" font-style="" opacity="1" y="0.050000000000000044" transform="rotate(0)"><tspan id="SvgjsTspan1062" dy="16" x="25.5"><tspan id="SvgjsTspan1063" style="text-decoration:;">long</tspan></tspan></text></g></g><g id="SvgjsG1064" transform="translate(576,167)"><path id="SvgjsPath1065" d="M 0 0L 51 0L 51 20L 0 20Z" stroke="rgba(50,50,50,1)" stroke-width="2" fill-opacity="1" fill="#ffffff"></path><g id="SvgjsG1066"><text id="SvgjsText1067" font-family="微软雅黑" text-anchor="middle" font-size="13px" width="31px" fill="#323232" font-weight="400" align="middle" anchor="middle" family="微软雅黑" size="13px" weight="400" font-style="" opacity="1" y="0.050000000000000044" transform="rotate(0)"><tspan id="SvgjsTspan1068" dy="16" x="25.5"><tspan id="SvgjsTspan1069" style="text-decoration:;">float</tspan></tspan></text></g></g><g id="SvgjsG1070" transform="translate(644,167)"><path id="SvgjsPath1071" d="M 0 0L 66 0L 66 20L 0 20Z" stroke="rgba(50,50,50,1)" stroke-width="2" fill-opacity="1" fill="#ffffff"></path><g id="SvgjsG1072"><text id="SvgjsText1073" font-family="微软雅黑" text-anchor="middle" font-size="13px" width="46px" fill="#323232" font-weight="400" align="middle" anchor="middle" family="微软雅黑" size="13px" weight="400" font-style="" opacity="1" y="0.050000000000000044" transform="rotate(0)"><tspan id="SvgjsTspan1074" dy="16" x="33"><tspan id="SvgjsTspan1075" style="text-decoration:;">double</tspan></tspan></text></g></g><g id="SvgjsG1076" transform="translate(725,167)"><path id="SvgjsPath1077" d="M 0 0L 66 0L 66 20L 0 20Z" stroke="rgba(50,50,50,1)" stroke-width="2" fill-opacity="1" fill="#ffffff"></path><g id="SvgjsG1078"><text id="SvgjsText1079" font-family="微软雅黑" text-anchor="middle" font-size="13px" width="46px" fill="#323232" font-weight="400" align="middle" anchor="middle" family="微软雅黑" size="13px" weight="400" font-style="" opacity="1" y="0.050000000000000044" transform="rotate(0)"><tspan id="SvgjsTspan1080" dy="16" x="33"><tspan id="SvgjsTspan1081" style="text-decoration:;">char</tspan></tspan></text></g></g><g id="SvgjsG1082" transform="translate(809,167)"><path id="SvgjsPath1083" d="M 0 0L 74 0L 74 20L 0 20Z" stroke="rgba(50,50,50,1)" stroke-width="2" fill-opacity="1" fill="#ffffff"></path><g id="SvgjsG1084"><text id="SvgjsText1085" font-family="微软雅黑" text-anchor="middle" font-size="13px" width="54px" fill="#323232" font-weight="400" align="middle" anchor="middle" family="微软雅黑" size="13px" weight="400" font-style="" opacity="1" y="0.050000000000000044" transform="rotate(0)"><tspan id="SvgjsTspan1086" dy="16" x="37"><tspan id="SvgjsTspan1087" style="text-decoration:;">boolean</tspan></tspan></text></g></g><g id="SvgjsG1088"><path id="SvgjsPath1089" d="M390 128L390 147.5L337.5 147.5L337.5 167" stroke="#323232" stroke-width="2" fill="none" marker-end="url(#SvgjsMarker1090)"></path></g><g id="SvgjsG1092"><path id="SvgjsPath1093" d="M390 128L390 147.5L470 147.5L470 167" stroke="#323232" stroke-width="2" fill="none" marker-end="url(#SvgjsMarker1094)"></path></g><g id="SvgjsG1096"><path id="SvgjsPath1097" d="M390 128L390 147.5L407.5 147.5L407.5 167" stroke="#323232" stroke-width="2" fill="none" marker-end="url(#SvgjsMarker1098)"></path></g><g id="SvgjsG1100"><path id="SvgjsPath1101" d="M390 128L390 147.5L532.5 147.5L532.5 167" stroke="#323232" stroke-width="2" fill="none" marker-end="url(#SvgjsMarker1102)"></path></g><g id="SvgjsG1104"><path id="SvgjsPath1105" d="M390 128L390 147.5L601.5 147.5L601.5 167" stroke="#323232" stroke-width="2" fill="none" marker-end="url(#SvgjsMarker1106)"></path></g><g id="SvgjsG1108"><path id="SvgjsPath1109" d="M390 128L390 147.5L677 147.5L677 167" stroke="#323232" stroke-width="2" fill="none" marker-end="url(#SvgjsMarker1110)"></path></g><g id="SvgjsG1112"><path id="SvgjsPath1113" d="M390 128L390 147.5L758 147.5L758 167" stroke="#323232" stroke-width="2" fill="none" marker-end="url(#SvgjsMarker1114)"></path></g><g id="SvgjsG1116"><path id="SvgjsPath1117" d="M390 128L390 147.5L846 147.5L846 167" stroke="#323232" stroke-width="2" fill="none" marker-end="url(#SvgjsMarker1118)"></path></g><g id="SvgjsG1120" transform="translate(25,97)"><path id="SvgjsPath1121" d="M 0 0L 65 0L 65 31L 0 31Z" stroke="rgba(50,50,50,1)" stroke-width="2" fill-opacity="1" fill="#ffffff"></path><g id="SvgjsG1122"><text id="SvgjsText1123" font-family="微软雅黑" text-anchor="middle" font-size="13px" width="45px" fill="#323232" font-weight="400" align="middle" anchor="middle" family="微软雅黑" size="13px" weight="400" font-style="" opacity="1" y="5.55" transform="rotate(0)"><tspan id="SvgjsTspan1124" dy="16" x="32.5"><tspan id="SvgjsTspan1125" style="text-decoration:;">......</tspan></tspan></text></g></g><g id="SvgjsG1126" transform="translate(196,156)"><path id="SvgjsPath1127" d="M 0 0L 65 0L 65 31L 0 31Z" stroke="rgba(50,50,50,1)" stroke-width="2" fill-opacity="1" fill="#ffffff"></path><g id="SvgjsG1128"><text id="SvgjsText1129" font-family="微软雅黑" text-anchor="middle" font-size="13px" width="45px" fill="#323232" font-weight="400" align="middle" anchor="middle" family="微软雅黑" size="13px" weight="400" font-style="" opacity="1" y="5.55" transform="rotate(0)"><tspan id="SvgjsTspan1130" dy="16" x="32.5"><tspan id="SvgjsTspan1131" style="text-decoration:;">......</tspan></tspan></text></g></g><g id="SvgjsG1132"><path id="SvgjsPath1133" d="M228.5 128L228.5 142L228.5 142L228.5 156" stroke="#323232" stroke-width="2" fill="none" marker-end="url(#SvgjsMarker1134)"></path></g><g id="SvgjsG1136"><path id="SvgjsPath1137" d="M57.5 56L57.5 76.5L57.5 76.5L57.5 97" stroke="#323232" stroke-width="2" fill="none" marker-end="url(#SvgjsMarker1138)"></path></g></svg>